<svg width="64" height="64" viewBox="0 0 64 64" fill="none" xmlns="http://www.w3.org/2000/svg">
<path d="M44.9563 15.8984L43.5288 14.8031L42.0113 13.8363L40.4153 13.0055L38.7529 12.3169L37.0369 11.7758L35.2803 11.3864L33.4964 11.1515L31.6988 11.0731L29.9012 11.1515L28.1173 11.3864L26.3606 11.7758L24.6446 12.3169L22.9823 13.0055L21.3863 13.8363L19.8687 14.8031L18.4413 15.8984L17.1147 17.114L15.8991 18.4406L14.8038 19.868L13.837 21.3856L13.0062 22.9816L12.3176 24.6439L11.7765 26.3599L11.3871 28.1166L11.1522 29.9005L11.0738 31.6981L11.1522 33.4956L11.3871 35.2796L11.7765 37.0362L12.3176 38.7522L13.0062 40.4146L13.837 42.0106L14.8038 43.5281L15.8991 44.9556L17.1147 46.2821L18.4413 47.4977L19.8687 48.5931L21.3863 49.5598L22.9823 50.3907L24.6446 51.0792L26.3606 51.6203" stroke="#FFE600" stroke-width="4" stroke-linecap="round"/>
</svg>
