<svg width="89" height="51" viewBox="0 0 89 51" fill="none" xmlns="http://www.w3.org/2000/svg">
<path d="M1 49.9565C4.85909 41.8945 10.2968 34.7863 15.0428 27.2569C15.9998 25.7387 16.9755 24.2348 17.9415 22.7229C18.0079 22.6188 18.3078 21.837 18.3723 22.0766C18.9656 24.28 19.0619 26.7824 19.3516 29.0392C19.701 31.7603 20.0259 34.5155 20.184 37.2553C20.2585 38.547 20.2134 39.8493 20.2134 41.1431C20.2134 41.2192 20.1647 41.6267 20.2819 41.4173C20.5796 40.8858 20.983 39.8116 21.1143 39.4783C22.8164 35.159 24.4037 30.7946 26.0499 26.4539C28.1054 21.0338 30.2103 15.6315 32.3074 10.2273C33.0783 8.24092 33.7514 6.05513 34.8144 4.19501C35.0045 3.86221 35.0542 3.02716 35.2746 3.83268C37.1499 10.6848 39.0018 17.5198 41.3168 24.2408C41.9826 26.1739 42.5053 28.1217 43.0892 30.0773C43.2686 30.6777 43.481 31.2275 43.481 31.8595C43.481 32.2125 43.4083 32.5784 43.6572 32.8584C43.9636 33.2031 43.8987 33.2698 44.0489 32.8192C45.4296 28.6772 46.802 24.4927 47.9465 20.2747C48.3127 18.925 48.5145 17.5425 49.0041 16.2303C49.0981 15.9784 49.1216 15.7768 49.1216 15.5154C49.1216 15.2042 49.0981 16.1517 49.1999 16.4457C49.7176 17.9412 50.4305 19.6166 51.2368 20.97C51.6539 21.6701 51.7838 22.6898 52.3336 23.3007C52.9233 23.9559 53.1686 25.0684 53.5283 25.8958C53.737 26.3757 53.8726 27.06 54.1648 27.4822C54.3215 27.7084 54.5938 27.8535 54.723 28.0991C54.7949 28.2357 54.6933 28.4806 54.8014 28.5888C54.9285 28.7158 54.9245 28.4146 54.9483 28.4027C55.0149 28.3694 55.0238 28.5313 55.056 28.5986C55.2381 28.9793 55.4437 29.3368 55.6827 29.6855C56.3506 30.66 57.1137 31.926 58.0232 32.6919C58.9092 33.438 58.8919 34.3647 59.3452 35.3262C59.8857 36.4727 60.5372 37.4955 61.1863 38.5774C61.7639 39.5401 62.6195 40.4415 63.3994 41.2214C63.7453 41.5673 63.8104 41.9872 64.1045 42.2986C64.2372 42.4391 64.4245 42.477 64.5354 42.6511C64.6202 42.7844 64.5824 43.3473 64.79 43.1506C66.8116 41.2354 67.3227 38.045 69.0988 35.9137C71.0762 33.5408 72.0789 30.3739 73.721 27.7466C76.0163 24.074 78.2315 20.5267 80.0765 16.6024C82.189 12.1091 84.5618 7.83114 86.9902 3.50952C87.3728 2.82846 87.5843 2.1156 87.9009 1.48242" stroke="white" stroke-linecap="round"/>
</svg>
